<svg width="82" height="17" viewBox="0 0 82 17" fill="none" xmlns="http://www.w3.org/2000/svg">
<g clip-path="url(#clip0_24_1972)">
<path d="M77.7598 15.1799C76.7898 15.1799 75.9498 14.9899 75.2398 14.6099C74.5298 14.2199 73.9798 13.6749 73.5898 12.9749C73.2098 12.2649 73.0198 11.4299 73.0198 10.4699C73.0198 9.50995 73.2098 8.68495 73.5898 7.99495C73.9698 7.29495 74.5098 6.75995 75.2098 6.38995C75.9098 6.00995 76.7298 5.81995 77.6698 5.81995C78.5898 5.81995 79.3798 5.99995 80.0398 6.35995C80.6998 6.70995 81.2098 7.21995 81.5698 7.88995C81.9298 8.54995 82.1098 9.33495 82.1098 10.2449V11.0249H75.1798C75.2598 11.7849 75.5198 12.3699 75.9598 12.7799C76.4098 13.1799 77.0048 13.3799 77.7448 13.3799C78.2948 13.3799 78.7398 13.2799 79.0798 13.0799C79.4298 12.8699 79.6748 12.5599 79.8148 12.1499H82.0648C81.8548 13.0999 81.3698 13.8449 80.6098 14.3849C79.8598 14.9149 78.9098 15.1799 77.7598 15.1799ZM75.2248 9.50995H79.9648C79.8748 8.88995 79.6348 8.41995 79.2448 8.09995C78.8548 7.76995 78.3298 7.60495 77.6698 7.60495C77.0198 7.60495 76.4848 7.76995 76.0648 8.09995C75.6448 8.42995 75.3648 8.89995 75.2248 9.50995Z" fill="#7748DC"/>
<path d="M69.3821 15C68.7921 15 68.3321 14.85 68.0021 14.55C67.6821 14.25 67.5221 13.795 67.5221 13.185V7.74005H65.9321V6.00005H67.5371V3.30005H69.7271V6.00005H71.9021V7.74005H69.7571V13.2451H72.1121V15H69.3821Z" fill="#7748DC"/>
<path d="M60.3498 15.1799C59.3798 15.1799 58.5348 14.9899 57.8148 14.6099C57.1048 14.2199 56.5498 13.6749 56.1498 12.9749C55.7598 12.2749 55.5648 11.4499 55.5648 10.4999C55.5648 9.53995 55.7598 8.70995 56.1498 8.00995C56.5498 7.30995 57.1098 6.76995 57.8298 6.38995C58.5498 6.00995 59.3898 5.81995 60.3498 5.81995C61.3298 5.81995 62.1698 6.00995 62.8698 6.38995C63.5798 6.76995 64.1298 7.30995 64.5198 8.00995C64.9098 8.70995 65.1048 9.53995 65.1048 10.4999C65.1048 11.4499 64.9098 12.2799 64.5198 12.9899C64.1298 13.6899 63.5798 14.2299 62.8698 14.6099C62.1598 14.9899 61.3198 15.1799 60.3498 15.1799ZM60.3498 13.2299C61.1498 13.2299 61.7698 12.9899 62.2098 12.5099C62.6498 12.0199 62.8698 11.3499 62.8698 10.4999C62.8698 9.63995 62.6498 8.96995 62.2098 8.48995C61.7698 8.00995 61.1498 7.76995 60.3498 7.76995C59.5398 7.76995 58.9098 8.00995 58.4598 8.48995C58.0198 8.96995 57.7998 9.63495 57.7998 10.4849C57.7998 11.3449 58.0198 12.0199 58.4598 12.5099C58.9098 12.9899 59.5398 13.2299 60.3498 13.2299Z" fill="#7748DC"/>
<path d="M53.6699 15H51.1949L44.5349 6.10498H44.4749V15H42.2999V2.84998H44.7149L51.4349 11.88H51.4949V2.84998H53.6699V15Z" fill="#7748DC"/>
<path d="M37.2596 15V2.84998H39.5396V15H37.2596Z" fill="#7748DC"/>
<path d="M23.09 15L28.25 2.84998H30.635L35.765 15H33.425L32.09 11.82H26.705L25.355 15H23.09ZM27.425 9.89998H31.445L29.48 5.18998H29.405L27.425 9.89998Z" fill="#7748DC"/>
<path fill-rule="evenodd" clip-rule="evenodd" d="M17.2806 1.43093C18.952 3.12514 18.6034 5.96007 18.2967 8.47995C18.0164 10.7818 17.4068 13.1549 15.6501 14.824C13.9329 16.4555 11.579 16.8689 9.33171 16.9979C7.07512 17.1275 4.81637 16.902 3.17114 15.5404C1.38507 14.0622 -0.0246322 11.9135 0.224623 9.46061C0.466961 7.07577 2.53549 5.25546 4.38832 3.56221C6.11528 1.98399 8.01802 0.677232 10.2372 0.310363C12.7605 -0.106759 15.6044 -0.268152 17.2806 1.43093Z" fill="url(#paint0_linear_24_1972)"/>
<path d="M10.9802 4.36193C11.1587 3.87936 11.8413 3.87936 12.0198 4.36193L12.9086 6.76387C12.9648 6.91559 13.0844 7.03522 13.2361 7.09136L15.6381 7.98016C16.1206 8.15873 16.1206 8.84127 15.6381 9.01984L13.2361 9.90864C13.0844 9.96478 12.9648 10.0844 12.9086 10.2361L12.0198 12.6381C11.8413 13.1206 11.1587 13.1206 10.9802 12.6381L10.0914 10.2361C10.0352 10.0844 9.91559 9.96478 9.76387 9.90864L7.36193 9.01985C6.87936 8.84128 6.87936 8.15873 7.36193 7.98016L9.76387 7.09136C9.91559 7.03522 10.0352 6.91559 10.0914 6.76387L10.9802 4.36193Z" fill="white"/>
</g>
<defs>
<linearGradient id="paint0_linear_24_1972" x1="13.3524" y1="0.154252" x2="12.4255" y2="17.7645" gradientUnits="userSpaceOnUse">
<stop stop-color="#9E73FB"/>
<stop offset="0.5" stop-color="#8B5EEC"/>
<stop offset="1" stop-color="#7748DC"/>
</linearGradient>
<clipPath id="clip0_24_1972">
<rect width="82" height="17" fill="white"/>
</clipPath>
</defs>
</svg>
